<svg width="6" height="10" viewBox="0 0 6 10" xmlns="http://www.w3.org/2000/svg">
<path d="M3.936 5L0.211229 1.27523C0.0741595 1.13331 -0.00168601 0.943237 2.84457e-05 0.74594C0.00174291 0.548642 0.0808801 0.359912 0.220396 0.220396C0.359911 0.0808804 0.548642 0.00174291 0.74594 2.84457e-05C0.943237 -0.00168601 1.13331 0.0741595 1.27523 0.211229L5.532 4.468C5.67307 4.60911 5.75232 4.80047 5.75232 5C5.75232 5.19953 5.67307 5.39089 5.532 5.532L1.27523 9.78877C1.13331 9.92584 0.943237 10.0017 0.74594 9.99997C0.548642 9.99826 0.359911 9.91912 0.220396 9.77961C0.0808801 9.64009 0.00174291 9.45136 2.84457e-05 9.25406C-0.00168601 9.05676 0.0741595 8.86669 0.211229 8.72477L3.936 5Z" />
</svg>
