<svg width="22" height="32" viewBox="0 0 22 32" xmlns="http://www.w3.org/2000/svg">
<path d="M7.85714 28.8V32H4.71429V28.8H0V0H17.2857C18.536 0 19.7351 0.505713 20.6192 1.40589C21.5033 2.30606 22 3.52696 22 4.8V24C22 25.273 21.5033 26.4939 20.6192 27.3941C19.7351 28.2943 18.536 28.8 17.2857 28.8H7.85714ZM4.71429 3.2H3.14286V25.6H4.71429V3.2ZM7.85714 3.2V25.6H17.2857C17.7025 25.6 18.1022 25.4314 18.3969 25.1314C18.6916 24.8313 18.8571 24.4243 18.8571 24V4.8C18.8571 4.37565 18.6916 3.96869 18.3969 3.66863C18.1022 3.36857 17.7025 3.2 17.2857 3.2H7.85714ZM9.42857 6.4H17.2857V9.6H9.42857V6.4ZM9.42857 11.2H17.2857V14.4H9.42857V11.2Z" />
</svg>
